<svg xmlns="http://www.w3.org/2000/svg" width="300" height="190" viewBox="0 0 300 190"><path fill="#010101" d="M300 21.771C300 9.471 289.977 0 277.611 0H22.388C10.023 0 0 9.471 0 21.771v145.458C0 179.529 10.023 190 22.388 190h255.223C289.977 190 300 179.529 300 167.229V21.771zm-15 145.384c0 4.1-3.342 7.845-7.463 7.845H22.463c-4.122 0-7.463-3.745-7.463-7.845V21.844c0-4.1 3.341-7.844 7.463-7.844h255.074c4.121 0 7.463 3.745 7.463 7.844v145.311z"/><path fill="#010101" d="M210.947 146.962l-44.775-51.964h29.851v-50.48h29.851v50.48h29.852l-44.779 51.964zM122.142 47H45v100h32v-31h45.142C135.331 116 145 104.695 145 91.705v-22.05C145 56.664 135.331 47 122.142 47zM114 91H77V73h37v18z"/></svg>