<svg xmlns="http://www.w3.org/2000/svg" width="300" height="190" viewBox="0 0 300 190"><path fill="#010101" d="M300 21.77C300 9.47 289.977 0 277.61 0H22.39C10.023 0 0 9.47 0 21.77v145.46C0 179.53 10.023 190 22.388 190H277.61c12.367 0 22.39-10.47 22.39-22.77V21.77zm-15 145.384c0 4.1-3.342 7.846-7.463 7.846H22.463C18.34 175 15 171.255 15 167.154V21.844c0-4.1 3.34-7.844 7.463-7.844h255.074c4.12 0 7.463 3.745 7.463 7.844v145.31z"/><path fill="#010101" d="M210.947 146.222l-44.775-51.964h29.85v-50.48h29.852v50.48h29.853l-44.78 51.964M122.685 44H44v102h32.64v-31.62h46.045c13.453 0 23.315-11.53 23.315-24.78V67.108C146 53.858 136.138 44 122.685 44zm-8.305 44.88H76.64V70.52h37.74v18.36z"/></svg>